<svg xmlns="http://www.w3.org/2000/svg" viewBox="0 0 541.33 415"><defs><style>.cls-1,.cls-6{fill:#fff;}.cls-2{fill:#776565;}.cls-12,.cls-13,.cls-15,.cls-16,.cls-2,.cls-3,.cls-4,.cls-5,.cls-6,.cls-7{stroke:#000;}.cls-12,.cls-13,.cls-14,.cls-15,.cls-16,.cls-2,.cls-3,.cls-4,.cls-5,.cls-6,.cls-7{stroke-miterlimit:10;}.cls-3{fill:#878787;}.cls-4{fill:#c6c4c4;}.cls-5{fill:#afafaf;}.cls-7{fill:#828282;}.cls-8{fill:#454200;}.cls-9{fill:#8b3e00;}.cls-10{fill:#29d000;}.cls-11{fill:#339633;}.cls-12{fill:#b5b5b5;}.cls-13{fill:#e0e0e0;}.cls-14,.cls-15{fill:none;}.cls-14{stroke:#141700;opacity:0.33;}.cls-16{fill:#ededed;}.cls-17{fill:#45e2ff;}.cls-18{fill:#333;}.cls-19{fill:#565656;}.cls-20{fill:#7c7c7c;}.cls-21{fill:#969696;}.cls-22{fill:#9b9b9b;}.cls-23{fill:#bcbcbc;}.cls-24{fill:#c1c1c1;}.cls-25{fill:#c6c6c6;}.cls-26,.cls-34{font-size:12px;font-family:MyriadPro-Regular, Myriad Pro;}.cls-27{letter-spacing:0.01em;}.cls-28{letter-spacing:-0.01em;}.cls-29{letter-spacing:-0.01em;}.cls-30{letter-spacing:-0.01em;}.cls-31{letter-spacing:-0.02em;}.cls-32{letter-spacing:-0.01em;}.cls-33{letter-spacing:0em;}.cls-34{letter-spacing:0em;}.cls-35{letter-spacing:0em;}.cls-36{letter-spacing:-0.02em;}.cls-37{letter-spacing:-0.01em;}.cls-38{letter-spacing:0em;}.cls-39{letter-spacing:0.01em;}</style></defs><title>Ativo 2</title><g id="Camada_2" data-name="Camada 2"><g id="Camada_1-2" data-name="Camada 1"><rect class="cls-1" x="36.18" width="505.16" height="389.67"/><path class="cls-2" d="M269.69,170.75s-1.66-8.7,8-8.47c2.33,0,1.33-6.11,1.33-6.11h-7.81s-5,1.41-4.49,9.17,0,5.41,0,5.41Z"/><path class="cls-2" d="M293.33,139.92h-6.5s-4.75.33-4.75,5.83-1.5,38.38-1.5,38.38h-5V147.75s-.95-14.37,15.78-13.68S293.33,139.92,293.33,139.92Z"/><path class="cls-3" d="M339.12,154.7h-5.28s-3.85.21-3.85,3.66-1.22,24-1.22,24h-4.06V159.61s-.78-9,12.81-8.57S339.12,154.7,339.12,154.7Z"/><path class="cls-2" d="M288.83,164l3.84-45.5a3,3,0,0,1,3.33-2.67c3.17,0,3,2.17,3,2.17l3.17,46Z"/><path class="cls-4" d="M283.33,184.13h25.5l-2.37-18.4s.42-1.73-4.29-1.73H288.08s-2,.27-2.5,3.6S283.33,184.13,283.33,184.13Z"/><polygon class="cls-5" points="330.83 172.5 330.83 226 345.83 226 345.83 181.75 330.83 172.5"/><path class="cls-6" d="M296.58,283.5c47.22,0,85.5-25.74,85.5-57.5h-171C211.08,257.76,249.36,283.5,296.58,283.5Z"/><path class="cls-3" d="M335.58,177.5l1.5-36.5s0-4,4-4,3.75,2.92,3.75,2.92l1,41.83Z"/><path class="cls-3" d="M357.83,156.17l3-45.42s0-3.75,6-3.75,4.75,3.25,4.75,3.25l2.25,45.92Z"/><path class="cls-7" d="M379.33,213V203l-1.5-11.5,1.5-.75V156.17H349.67v18.69L377.83,226H382c0-.54,0-1.33.05-2.5A20.53,20.53,0,0,0,379.33,213Zm-.75,12.75c0,.08-.5.08-.5,0V199.92c0-.08.5-.08.5,0Zm.75.08c0,.08-.5.08-.5,0V213.08c0-.07.5-.07.5,0Zm.92-.33c0,.08-.5.08-.5,0V215.42c0-.08.5-.08.5,0Zm.92-.08c0,.07-.5.07-.5,0v-7.75c0-.08.5-.08.5,0Z"/><path class="cls-8" d="M230.58,226s-8.25-20.47,0-27.09L226.92,195l-1.84,5.12s-1.91,1.9-2.83-.1a4.84,4.84,0,0,1-.42-3.41L221.7,195l-4.45,1.4s2.25,4,1,4.82-3.75-3.51-3.75-3.51l-3.42,3.71s8.25,6.32,8.75,12.44S217.17,226,217.17,226Z"/><path class="cls-9" d="M247.1,226.26s-7.51-26.46,1.48-34.54L245,186.57l-2.2,6.44s-2.11,2.35-3-.25a7.55,7.55,0,0,1-.25-4.37l-.05-2-4.73,1.59s2.14,5.22.78,6.18-3.73-4.64-3.73-4.64l-3.77,4.58s8.28,8.43,8.47,16.25-3.46,16.52-3.46,16.52Z"/><rect class="cls-6" x="313.33" y="176.67" width="17.5" height="7.46"/><path class="cls-10" d="M230.38,191s-6.1-3.95-7.91,1,1.19,5.57-2.74,2.7-5.34-5-5-6.27,2.77-4-.18-3.9l-2.94.1-2-3.48-.08-2.37,1.21-1.4s-4.61-3.24-1.42-5a58,58,0,0,1,6.48-3.05l.28-1.85-1.4-2-.07-1.93-.09-2.74c0-1,1.92-2.61,1.92-2.61l-1.08-2.33s-4-.29-.77-2.9,4.48-5.94,5.83-5.34,4.85-.16,4.85-.16,3-.79,3.65-2.81l.67-2,3.67-.12,4.93-2.16,1.94-1.74,5.42,1.49s.67,1,2.65.58,1.59-2.39,3.32-.44,2.72,1.57,3.1,2.89.09,2.71,1.78,3.3,2.41,2.23,3.75,2.52,4.56-1.15,4,1.2-1.2,3.13-1.49,4.43,1.59,1.58,1.78,3.24.29-.53.19,1.65,1.68,4.29,1.71,5.29-1.27,2,.09,2.83-.4-2.16,1.36.79,3.33-.11,1.77,2.94l-1.57,3.05s-3.67,1.92-2.93,3.16a23.22,23.22,0,0,1,1.52,4.56l-5.18,4.75c-.6,1.78,1.39,1.51-.53,3.85s-1.59,2.32-3.93,2.39l-4,.14s-1.25,2.54-2.58,2.67-1-3.07-3.08-3.41a9.67,9.67,0,0,1-3.41-1.23l-1.5.05-3.83,2.31-.4-3.75-2.62,1.27-4.52,4.4-5.05,1.17-5.21.18-1.14-8.17L235,186.14"/><path class="cls-11" d="M208.39,203.72s-5.43-2.43-5.7,2.24,2.1,4.71-1.47,2.86-5.09-3.49-5.14-4.65,1.2-4-1-3.42l-2.19.6-2.28-2.72-.57-2.08.59-1.45s-4.16-2.06-2.16-4.19a43.25,43.25,0,0,1,4.19-3.84l-.2-1.68L191,183.91l-.47-1.7-.67-2.4c-.24-.88.87-2.65.87-2.65l-1.32-1.88s-3.07.46-1.2-2.42,2-6.05,3.19-5.75,3.59-1,3.59-1,2.07-1.22,2.12-3.13l.06-1.91,2.72-.75,3.21-2.78,1.08-1.87,4.38.36s.71.75,2.11.05.67-2.4,2.39-1,2.38.92,2.95,2,.66,2.38,2.05,2.6,2.29,1.56,3.36,1.58,3.16-1.82,3.26.36-.21,3-.14,4.17,1.53,1.13,2,2.55.1-.52.51,1.43,2.19,3.5,2.43,4.38-.5,2,.69,2.49-.77-1.83,1.19.46,2.47-.68,2,2.29l-.5,3s-2.33,2.34-1.5,3.31a25.73,25.73,0,0,1,2.13,3.77l-2.84,5.11c-.06,1.68,1.37,1.1.44,3.5s-.69,2.33-2.41,2.81l-3,.82s-.38,2.47-1.34,2.82-1.45-2.54-3.05-2.48a6.86,6.86,0,0,1-2.82-.49l-1.12.31L215,204.6l-1.11-3.24-1.68,1.58-2.43,4.69-3.52,1.92-3.86,1.07-2.64-7,11-5"/><rect class="cls-12" x="248.37" y="206.67" width="13.63" height="19.33"/><rect class="cls-13" x="262" y="184.13" width="68.83" height="41.88"/><path class="cls-14" d="M198.33,169.5s-2.33-.58-1.5,1.58"/><path class="cls-14" d="M199.45,165.65s-2.33-.58-1.5,1.59"/><path class="cls-14" d="M194,173s-2.34-.58-1.5,1.59"/><path class="cls-14" d="M195.67,181.4s-2.34-.58-1.5,1.58"/><path class="cls-14" d="M194.83,177.19s-2.34-.58-1.5,1.58"/><path class="cls-14" d="M200,179.34s-2.34-.58-1.5,1.58"/><path class="cls-14" d="M204.84,175.42s-2.33-.58-1.5,1.59"/><path class="cls-14" d="M208.74,168.1s-2.33-.58-1.5,1.58"/><path class="cls-14" d="M209.06,163.65s-2.33-.59-1.5,1.58"/><path class="cls-14" d="M206.25,162s-2.33-.58-1.5,1.59"/><path class="cls-14" d="M202.51,161.17s-2.34-.59-1.5,1.58"/><path class="cls-14" d="M207.61,158.55s-2.33-.58-1.5,1.59"/><path class="cls-14" d="M199.13,174.15s-2.94-.92-1.89,2.51"/><path class="cls-14" d="M204,169.54s-2.94-.92-1.89,2.51"/><path class="cls-14" d="M203.29,165s-2.94-.93-1.89,2.51"/><path class="cls-14" d="M232.42,153.32s-2.34-.58-1.5,1.58"/><path class="cls-14" d="M228.07,152.49s-2.33-.58-1.5,1.58"/><path class="cls-14" d="M233.54,149.47s-2.34-.58-1.5,1.59"/><path class="cls-14" d="M227.92,149.21s-2.33-.58-1.5,1.58"/><path class="cls-14" d="M228.07,156.8s-2.33-.58-1.5,1.58"/><path class="cls-14" d="M223.88,155.41s-2.33-.58-1.5,1.58"/><path class="cls-14" d="M229.75,165.22s-2.33-.59-1.5,1.58"/><path class="cls-14" d="M228.91,161s-2.33-.58-1.5,1.58"/><path class="cls-14" d="M234.05,163.16s-2.33-.58-1.5,1.58"/><path class="cls-14" d="M238.92,159.24s-2.33-.58-1.5,1.59"/><path class="cls-14" d="M242.83,151.92s-2.34-.58-1.5,1.58"/><path class="cls-14" d="M243.15,147.47s-2.34-.59-1.5,1.58"/><path class="cls-14" d="M240.34,145.81s-2.34-.58-1.5,1.59"/><path class="cls-14" d="M236.59,145s-2.33-.58-1.5,1.59"/><path class="cls-14" d="M232.42,146.29s-2.34-.58-1.5,1.58"/><path class="cls-14" d="M241.7,142.37s-2.34-.58-1.5,1.58"/><path class="cls-14" d="M233.21,158s-2.94-.92-1.89,2.51"/><path class="cls-14" d="M238.08,153.36s-2.93-.92-1.89,2.51"/><path class="cls-14" d="M237.38,148.77s-2.94-.93-1.89,2.51"/><path class="cls-14" d="M219.77,153.36s-2.94-.92-1.89,2.51"/><path class="cls-14" d="M223,150.08s-2.94-.92-1.89,2.51"/><line class="cls-6" x1="215.35" y1="243.97" x2="377.83" y2="243.97"/><line class="cls-6" x1="226.24" y1="258.69" x2="365.83" y2="258.69"/><line class="cls-6" x1="248.37" y1="273.49" x2="344" y2="273.49"/><path class="cls-15" d="M230.58,226s8.75,57.5,66,57.5"/><path class="cls-15" d="M262,226s5.85,57.5,37.34,57.5"/><path class="cls-15" d="M365.83,226s-8.46,57.5-63.82,57.5"/><path class="cls-15" d="M336.42,226s-6.62,57.5-37.08,57.5"/><polygon class="cls-5" points="360.83 172.5 360.83 226 377.83 226 377.83 181.75 360.83 172.5"/><polygon class="cls-5" points="345.83 172.5 345.83 226 360.83 226 360.83 181.75 345.83 172.5"/><rect class="cls-16" x="268.33" y="191.57" width="7.24" height="12.09"/><rect class="cls-6" x="251.56" y="209.67" width="7.24" height="6.05"/><rect class="cls-6" x="280.33" y="191.57" width="7.24" height="12.09"/><polygon class="cls-17" points="275.08 192 268.75 203.17 268.75 191.92 275.08 191.92 275.08 192"/><rect class="cls-16" x="280.33" y="191.57" width="7.24" height="12.09"/><polygon class="cls-17" points="287.08 192 280.75 203.17 280.75 191.92 287.08 191.92 287.08 192"/><rect class="cls-16" x="298.33" y="191.57" width="7.24" height="29.43"/><polygon class="cls-17" points="305.08 192.14 298.75 220.38 298.75 191.92 305.08 191.92 305.08 192.14"/><rect class="cls-16" x="309.33" y="191.57" width="7.24" height="29.43"/><polygon class="cls-17" points="316.08 192.14 309.75 220.38 309.75 191.92 316.08 191.92 316.08 192.14"/><rect class="cls-16" x="320.33" y="191.57" width="7.24" height="29.43"/><polygon class="cls-17" points="327.08 192.14 320.75 220.38 320.75 191.92 327.08 191.92 327.08 192.14"/><circle class="cls-18" cx="176.48" cy="97.39" r="39.61"/><circle class="cls-19" cx="138.13" cy="205.06" r="33.4"/><circle class="cls-20" cx="204.57" cy="298.88" r="28.09"/><circle class="cls-21" cx="299.34" cy="321.25" r="22.38"/><circle class="cls-22" cx="373.83" cy="298.88" r="18.41"/><circle class="cls-23" cx="412.95" cy="245.33" r="14.83"/><circle class="cls-24" cx="425.4" cy="191.57" r="12.45"/><circle class="cls-25" cx="406.85" cy="141.11" r="10.35"/><text class="cls-26" transform="translate(99.28 39.48)"><tspan class="cls-27">S</tspan><tspan x="5.99" y="0">enso de </tspan><tspan class="cls-28" x="47.87" y="0">r</tspan><tspan x="51.67" y="0">esponsabilidade </tspan><tspan x="42.86" y="14.4">e</tspan><tspan class="cls-29" x="48.88" y="14.4">c</tspan><tspan x="54.18" y="14.4">oló</tspan><tspan class="cls-30" x="70.19" y="14.4">g</tspan><tspan x="76.82" y="14.4">ica</tspan></text><text class="cls-26" transform="translate(362.02 329.77)"><tspan class="cls-31">P</tspan><tspan class="cls-32" x="6.19" y="0">r</tspan><tspan x="10" y="0">o</tspan><tspan class="cls-29" x="16.58" y="0">t</tspan><tspan x="20.48" y="0">eção dos </tspan><tspan x="0" y="14.4">funcioná</tspan><tspan class="cls-33" x="43.99" y="14.4">r</tspan><tspan x="47.96" y="14.4">ios</tspan></text><text class="cls-26" transform="translate(396.65 276.38)"><tspan class="cls-31">P</tspan><tspan class="cls-32" x="6.19" y="0">r</tspan><tspan x="10" y="0">essão do me</tspan><tspan class="cls-28" x="72.35" y="0">r</tspan><tspan x="76.15" y="0">cado</tspan></text><text class="cls-34" transform="translate(419.14 218.55)">Q<tspan class="cls-35" x="8.3" y="0">ualidade de vida</tspan></text><text class="cls-26" transform="translate(412.04 162.7)"><tspan class="cls-36">L</tspan><tspan x="5.48" y="0">uc</tspan><tspan class="cls-28" x="17.47" y="0">r</tspan><tspan x="21.28" y="0">o</tspan></text><text class="cls-26" transform="translate(68.77 163.37)">Exigências <tspan class="cls-37" x="54.91" y="0">L</tspan><tspan x="60.41" y="0">egais</tspan></text><text class="cls-26" transform="translate(49.25 298.22)"><tspan class="cls-31">P</tspan><tspan class="cls-32" x="6.19" y="0">r</tspan><tspan x="10" y="0">o</tspan><tspan class="cls-29" x="16.58" y="0">t</tspan><tspan x="20.48" y="0">eção dos i</tspan><tspan class="cls-38" x="70.25" y="0">n</tspan><tspan class="cls-30" x="76.86" y="0">t</tspan><tspan x="80.76" y="0">e</tspan><tspan class="cls-28" x="86.77" y="0">r</tspan><tspan x="90.57" y="0">esses </tspan><tspan x="58.56" y="14.4">da emp</tspan><tspan class="cls-32" x="96.5" y="14.4">r</tspan><tspan x="100.31" y="14.4">esa</tspan></text><text class="cls-26" transform="translate(240.7 347.59)"><tspan class="cls-39">I</tspan><tspan x="2.99" y="0">magem</tspan></text><text></text><path class="cls-1" d="M176.09,77.26h-.21l-11.77,5-1.78-5.55,14.8-6.3H185v53.87h-8.86Z"/><path class="cls-1" d="M126.36,221.91v-3.06l3.91-3.8c9.42-9,13.68-13.73,13.73-19.29,0-3.74-1.81-7.2-7.32-7.2a12.53,12.53,0,0,0-7.82,3.12l-1.59-3.51a16.15,16.15,0,0,1,10.44-3.75c7.94,0,11.28,5.44,11.28,10.72,0,6.81-4.93,12.31-12.7,19.8l-2.95,2.72v.11H149.9v4.14Z"/><path class="cls-1" d="M197.33,308.33a11.91,11.91,0,0,0,5.83,1.66c4.57,0,6-2.91,5.94-5.1,0-3.68-3.35-5.26-6.79-5.26h-2V297h2c2.59,0,5.86-1.34,5.86-4.45,0-2.11-1.33-4-4.61-4a9.62,9.62,0,0,0-5.25,1.74l-.93-2.59a12.48,12.48,0,0,1,6.87-2c5.18,0,7.52,3.07,7.52,6.27,0,2.71-1.61,5-4.85,6.19v.08a6.84,6.84,0,0,1,5.86,6.75c0,4.21-3.27,7.89-9.58,7.89a13.4,13.4,0,0,1-6.84-1.78Z"/><path class="cls-1" d="M300.41,331.78v-5.73h-9.79v-1.88l9.4-13.45h3.08v13.09h2.95v2.24H303.1v5.73Zm0-8v-7c0-1.1,0-2.2.1-3.3h-.1c-.65,1.23-1.17,2.14-1.75,3.11l-5.16,7.16v.06Z"/><path class="cls-1" d="M380.25,290.17h-8.42l-.85,5.67a11.52,11.52,0,0,1,1.8-.14,9.4,9.4,0,0,1,4.76,1.19,6.3,6.3,0,0,1,3.15,5.67c0,4.31-3.43,7.54-8.21,7.54a10.83,10.83,0,0,1-5.51-1.36l.75-2.27a10,10,0,0,0,4.72,1.22c2.82,0,5.23-1.83,5.23-4.79s-1.93-4.89-6.35-4.89a23.18,23.18,0,0,0-3.06.24l1.43-10.6h10.56Z"/><path class="cls-1" d="M430.49,183.86v1.44l-7,14.68h-2.26l7-14.26v-.05h-7.88v-1.81Z"/><path class="cls-1" d="M416.27,240.61a6.86,6.86,0,0,0-1.37.08,5.51,5.51,0,0,0-4.72,4.83h.06a4,4,0,0,1,3.28-1.57c2.4,0,4.09,1.73,4.09,4.39a4.54,4.54,0,0,1-4.51,4.78c-2.9,0-4.8-2.26-4.8-5.79a8.57,8.57,0,0,1,2.29-6.12,7.46,7.46,0,0,1,4.35-2,9.38,9.38,0,0,1,1.33-.11Zm-.52,7.83c0-1.94-1.1-3.11-2.8-3.11a3,3,0,0,0-2.63,1.67,1.61,1.61,0,0,0-.21.81c.05,2.24,1.07,3.89,3,3.89C414.69,251.7,415.75,250.38,415.75,248.44Z"/><path class="cls-1" d="M401.74,144.84a4.33,4.33,0,0,1,3-4.06l0-.07a3.75,3.75,0,0,1-2.4-3.4c0-2.4,2-4,4.69-4,2.93,0,4.4,1.84,4.4,3.73a3.85,3.85,0,0,1-2.49,3.54v.07c1.88.75,3.05,2.07,3.05,3.91,0,2.63-2.26,4.4-5.15,4.4C403.65,148.93,401.74,147.05,401.74,144.84Zm8.15-.1c0-1.84-1.28-2.72-3.33-3.3a3.27,3.27,0,0,0-2.72,3.11,2.8,2.8,0,0,0,3,2.89A2.73,2.73,0,0,0,409.89,144.74Zm-5.63-7.57c0,1.52,1.14,2.33,2.88,2.8a3,3,0,0,0,2.31-2.75,2.35,2.35,0,0,0-2.56-2.47A2.41,2.41,0,0,0,404.26,137.17Z"/></g></g></svg>